<?xml version="1.0" standalone="no"?>
<!DOCTYPE svg PUBLIC "-//W3C//DTD SVG 20010904//EN"
 "http://www.w3.org/TR/2001/REC-SVG-20010904/DTD/svg10.dtd">
<svg version="1.0" xmlns="http://www.w3.org/2000/svg"
 width="110.000000pt" height="110.000000pt" viewBox="0 0 110.000000 110.000000"
 preserveAspectRatio="xMidYMid meet">
<metadata>
Created by potrace 1.11, written by Peter Selinger 2001-2013
</metadata>
<g transform="translate(0.000000,110.000000) scale(0.100000,-0.100000)"
fill="#000000" stroke="none">
<path d="M80 825 c0 -18 5 -25 19 -25 10 0 23 -6 28 -12 5 -7 52 -127 104
-265 l94 -253 31 0 32 0 70 203 c38 111 78 228 88 260 15 50 22 59 47 64 21 4
27 11 25 27 -3 19 -9 21 -88 21 -80 0 -85 -1 -88 -22 -3 -17 2 -22 25 -25 15
-2 28 -7 27 -11 0 -4 -29 -100 -65 -212 -55 -175 -65 -201 -72 -177 -5 15 -38
107 -74 204 -35 98 -61 182 -58 188 3 5 17 10 31 10 19 0 24 5 24 25 l0 25
-100 0 -100 0 0 -25z"/>
<path d="M735 836 c-42 -18 -83 -69 -91 -112 -5 -26 -1 -46 18 -82 22 -42 34
-52 132 -104 59 -31 114 -65 122 -75 21 -28 17 -78 -9 -109 -42 -49 -187 -43
-201 9 -3 12 -6 37 -6 55 0 29 -3 32 -30 32 l-30 0 0 -73 0 -73 53 -17 c165
-52 304 9 315 138 4 47 1 55 -29 89 -20 24 -69 56 -130 86 -103 52 -129 77
-129 123 0 45 40 77 97 77 82 0 90 -6 97 -61 6 -43 10 -49 30 -49 19 0 24 7
30 38 3 20 6 51 6 67 0 28 -4 32 -45 43 -59 16 -162 15 -200 -2z"/>
</g>
</svg>
