<?xml version="1.0" encoding="utf-8"?>
<!-- Generator: Adobe Illustrator 19.0.0, SVG Export Plug-In . SVG Version: 6.00 Build 0)  -->
<svg version="1.1" id="Capa_1" xmlns="http://www.w3.org/2000/svg" xmlns:xlink="http://www.w3.org/1999/xlink" x="0px" y="0px"
	 viewBox="206 -154.2 512 408.5" style="enable-background:new 206 -154.2 512 408.5;" xml:space="preserve">
<style type="text/css">
	.st0{fill:#333333;}
</style>
<g>
	<g>
		<path class="st0" d="M614.5,87.3c0-9.3-3.3-17.5-10-24.5L411.7-129.7c-6.8-6.8-16-12.6-27.5-17.4c-11.5-4.8-22-7.1-31.5-7.1H240.5
			c-9.3,0-17.4,3.4-24.3,10.2c-6.8,6.8-10.2,14.9-10.2,24.3V-7.6c0,9.5,2.4,20,7.1,31.5c4.8,11.5,10.6,20.6,17.4,27.2l192.8,193
			c6.7,6.7,14.7,10,24.3,10c9.3,0,17.5-3.3,24.5-10l132.4-132.7C611.1,105,614.5,96.9,614.5,87.3z M316.7-43.6
			c-6.7,6.7-14.9,10.1-24.4,10.1c-9.5,0-17.7-3.4-24.4-10.1c-6.7-6.7-10.1-14.9-10.1-24.4c0-9.5,3.4-17.7,10.1-24.4
			c6.7-6.7,14.9-10.1,24.4-10.1c9.5,0,17.7,3.4,24.4,10.1c6.7,6.7,10.1,14.9,10.1,24.4C326.8-58.4,323.4-50.3,316.7-43.6z"/>
		<path class="st0" d="M708,62.8L515.2-129.7c-6.8-6.8-16-12.6-27.5-17.4c-11.5-4.8-22-7.1-31.5-7.1h-60.4c9.5,0,20,2.4,31.5,7.1
			c11.5,4.8,20.7,10.6,27.5,17.4L647.6,62.8c6.7,7,10,15.2,10,24.5c0,9.5-3.3,17.6-10,24.3L520.9,238.3c5.4,5.6,10.2,9.6,14.3,12.1
			c4.1,2.5,9.4,3.8,15.9,3.8c9.4,0,17.5-3.3,24.5-10L708,111.6c6.7-6.7,10-14.7,10-24.3C718,78,714.7,69.8,708,62.8z"/>
	</g>
</g>
</svg>
